<svg id="Camada_1" data-name="Camada 1" xmlns="http://www.w3.org/2000/svg" viewBox="0 0 81.57 81.57"><defs><style>.cls-1{fill:#1d1d1b;}</style></defs><circle class="cls-1" cx="40.89" cy="40.48" r="20.05"/><polygon class="cls-1" points="40.89 16.47 37.98 14.82 37.98 3.06 40.89 0 43.57 3.06 43.57 14.59 40.89 16.47"/><polygon class="cls-1" points="41.01 16.47 38.1 14.82 38.1 3.06 41.01 0 43.69 3.06 43.69 14.59 41.01 16.47"/><polygon class="cls-1" points="40.66 65.11 43.57 66.75 43.57 78.52 40.66 81.57 37.98 78.52 37.98 66.99 40.66 65.11"/><polygon class="cls-1" points="65.11 40.6 66.75 37.69 78.52 37.69 81.57 40.6 78.52 43.28 66.99 43.28 65.11 40.6"/><polygon class="cls-1" points="16.47 40.37 14.82 43.28 3.06 43.28 0 40.37 3.06 37.69 14.59 37.69 16.47 40.37"/><polygon class="cls-1" points="58.29 58.33 61.52 57.46 69.77 65.84 69.84 70.06 65.79 69.77 57.7 61.55 58.29 58.33"/><polygon class="cls-1" points="23.52 23.58 20.28 24.44 12.06 16.03 12.01 11.81 16.06 12.12 24.12 20.36 23.52 23.58"/><polygon class="cls-1" points="23.8 58.54 24.53 61.8 15.82 69.71 11.6 69.6 12.06 65.56 20.6 57.82 23.8 58.54"/><polygon class="cls-1" points="58.7 23.06 57.69 19.87 65.7 11.26 69.92 11 69.8 15.07 61.95 23.51 58.7 23.06"/></svg>