<svg xmlns="http://www.w3.org/2000/svg" viewBox="0 0 81.57 82.88"><defs><style>.cls-1{fill:none;}.cls-2{fill:#1d1d1b;}</style></defs><g id="Camada_1" data-name="Camada 1"><circle class="cls-1" cx="40.89" cy="41.79" r="20.05"/><polygon class="cls-1" points="40.89 17.78 37.98 16.13 37.98 4.37 40.89 1.31 43.57 4.37 43.57 15.9 40.89 17.78"/><polygon class="cls-1" points="41.01 17.78 38.1 16.13 38.1 4.37 41.01 1.31 43.69 4.37 43.69 15.9 41.01 17.78"/><polygon class="cls-1" points="40.66 66.42 43.57 68.06 43.57 79.83 40.66 82.88 37.98 79.83 37.98 68.3 40.66 66.42"/><polygon class="cls-1" points="65.11 41.91 66.75 39 78.52 39 81.57 41.91 78.52 44.59 66.99 44.59 65.11 41.91"/><polygon class="cls-1" points="16.47 41.68 14.82 44.59 3.06 44.59 0 41.68 3.06 39 14.59 39 16.47 41.68"/><polygon class="cls-1" points="58.29 59.64 61.52 58.77 69.77 67.15 69.84 71.38 65.79 71.08 57.7 62.86 58.29 59.64"/><polygon class="cls-1" points="23.52 24.89 20.28 25.75 12.06 17.34 12.01 13.12 16.06 13.43 24.12 21.67 23.52 24.89"/><polygon class="cls-1" points="23.8 59.85 24.53 63.12 15.82 71.02 11.6 70.91 12.06 66.87 20.6 59.13 23.8 59.85"/><polygon class="cls-1" points="58.7 24.37 57.69 21.18 65.7 12.57 69.92 12.31 69.8 16.38 61.95 24.82 58.7 24.37"/></g><g id="Camada_3" data-name="Camada 3"><path class="cls-2" d="M44.28,12.49" transform="translate(-9.62 -9.17)"/><path class="cls-2" d="M43.67,15.36s1-4-.38-5.42-5.17-.42-5.17-.42A43.2,43.2,0,0,0,13.6,41.05C8.88,65,30,80.19,30,80.19a40,40,0,0,0,39.83,5.67c23.36-9,18.39-17.56,18.39-17.56s-1.68-2.71-10.15-.92C68.63,69.39,50,62.45,43.73,49A40.16,40.16,0,0,1,43.67,15.36Z" transform="translate(-9.62 -9.17)"/></g></svg>