<svg id="Camada_1" data-name="Camada 1" xmlns="http://www.w3.org/2000/svg" viewBox="0 0 82.31 82.31"><defs><style>.cls-1{fill:#fff;stroke:#1d1d1b;stroke-miterlimit:10;stroke-width:0.5px;}</style></defs><circle class="cls-1" cx="41.26" cy="40.85" r="20.05"/><polygon class="cls-1" points="41.26 16.84 38.35 15.19 38.35 3.43 41.26 0.37 43.94 3.43 43.94 14.96 41.26 16.84"/><polygon class="cls-1" points="41.38 16.84 38.47 15.19 38.47 3.43 41.38 0.37 44.06 3.43 44.06 14.96 41.38 16.84"/><polygon class="cls-1" points="41.03 65.48 43.94 67.12 43.94 78.89 41.03 81.94 38.35 78.89 38.35 67.36 41.03 65.48"/><polygon class="cls-1" points="65.48 40.97 67.12 38.06 78.89 38.06 81.94 40.97 78.89 43.65 67.36 43.65 65.48 40.97"/><polygon class="cls-1" points="16.84 40.74 15.19 43.65 3.43 43.65 0.37 40.74 3.43 38.06 14.96 38.06 16.84 40.74"/><polygon class="cls-1" points="58.66 58.7 61.89 57.83 70.14 66.21 70.21 70.44 66.16 70.14 58.07 61.92 58.66 58.7"/><polygon class="cls-1" points="23.89 23.95 20.65 24.81 12.43 16.4 12.38 12.18 16.43 12.49 24.49 20.73 23.89 23.95"/><polygon class="cls-1" points="24.17 58.91 24.9 62.18 16.19 70.08 11.97 69.97 12.43 65.93 20.97 58.19 24.17 58.91"/><polygon class="cls-1" points="59.07 23.43 58.06 20.24 66.07 11.63 70.29 11.37 70.17 15.44 62.32 23.88 59.07 23.43"/></svg>